<?xml version='1.0' encoding='utf-8'?>
<svg xmlns:xlink="http://www.w3.org/1999/xlink" xmlns="http://www.w3.org/2000/svg" preserveAspectRatio="none" version="1.1" viewBox="0 0 1920 1080"> <defs> <g id="a"> <path d="m-39.35 37.55-8.8-1.65-37.3-27.75-20.25 39.9 0.45 44.8 0.1 1.8 0.05 2.65 38.45 22.9 11.6 10.75 15.95 4.6 29 23.6h0.8l3.4-100.35-33.45-21.25m-44.8-129.5-19.4-13.15 0.45 12 114.35 65.8-95.4-64.65m-108.45 80.8 2.8 2.8-7.6 6.2-1.4 45.95 5.2 7.6 21.4 7.6 18.6 15q0.6-1.8 23.15-52.55l0.6-33.2-29.3-12.1-0.5-8.8-0.15-0.1-40.2-16.4 1.2 31.8 6.2 6.2m270.25 33.55-10.8-3.55 4.4 51.15 5 2 1.4-49.6m56.4-45.3-7.15-4.45 11.95 101.5 4.15 1.75-0.45-5.3-8.5-93.5m-131.55-113.4v-0.2l-20.6-12.8v8.6l20.2 7.2 0.2 0.2 0.2-3z" fill="#836B5D"/> <path d="m14.1 138.4 5.35-33.35-13.55-2.85 4-44.8-12 3-3.8-1.6-3.4 100.35 20 0.8 3.4-21.55m146.1-166.95-0.4 0.2-25.75 5.45 8.5 93.5 0.15-0.95 17.5-98.2z" fill="#D2AA94"/> <path d="m117.65 97.2 0.05-0.05 0.25-3 3.6-42.6-9.5-54.5-34.4 25.35-1.4 49.6v0.8l3.8 24.4-8.8-27.2-4.4-51.15-31.75 21.8-2.95 14.6 2.9 4.9-4.65 21.65 2.2-20.95-3.9-5.35 0.85-10.6-19.65 12.5-4 44.8 53.6-25.6-40.05 28.45-5.35 33.35-3.4 21.55 14.4-12.2 92.55-50.55m-139.4-194.75 0.05-6.6-62.45 12.2 62.4-5.6m-94.8 48-2-4.85-41.1 21.75 0.5 8.8 42.6-25.7m312.15 48.2 4.4-47.8-39.8 20.6-17.5 98.2 53-69-0.1-2m-166.7 1 1.2-1 98.95-81.2 0.8-12.95-100.95 95.15m48.45-111.3 1.3-13.1-98.1 48.1 96.8-35z" fill="#FFD9C4"/> <path d="m12.9-126.1-10.6-7.2-0.2-0.2-20.2-7.2-19.2 12.4-31.35 9-34.9 14.2 19.4 13.15-14.6-13.05 30.9-14.35 44.95 15.3 1.2-0.1-0.05 6.6-62.4 5.6 95.4 64.65-114.35-65.8-35.75 18.55-13.35 1.4 33.65 18.75 2 4.85-42.6 25.7 29.3 12.1 12.2-4 43.95 22.65-11.75 1.25 37.3 27.75 76-23.65-67.2 25.3 33.45 21.25 3.8 1.6 12-3 19.65-12.5h-0.4l-7.25-4.5-1.2-4.4q-3.9-1.75-7.75-3.55-7.75-3.6-7.6-3.75l17.75 5.6 1 4.4 10.4 2.1 0.6-0.15 31.75-21.8 10.8 3.55 34.4-25.35-11.3 0.2 26.15-24.6 7.15 4.45 25.75-5.45 0.4-0.2 39.8-20.6-70.95-33.4-98.95 81.2-1.2 1 100.95-95.15-28.2-13.4-51.55 74.55 44.55-69.75-17.3-7.55-96.8 35 98.1-48.1-31.95-13.15-15.35-4.25-28.65 5.8 0.8 0.65 9.4 9.6m-7 228.3 13.55 2.85 40.05-28.45-53.6 25.6z" fill="#E2B8A1"/> <path d="m-124.25 19.65-6.2 1.8q-22.55 50.75-23.15 52.55l0.6 0.4 4.4-3 24.35-51.75z" fill="#A18371"/> <path d="m-105.7 48.05 20.25-39.9 11.75-1.25-43.95-22.65-6.6 35.2v0.2l-24.35 51.75 43.35 21.45-0.45-44.8m111.05-19.35q-0.15 0.15 7.6 3.75 3.85 1.8 7.75 3.55l1.2 4.4 7.25 4.5h0.4l-0.85 10.6 3.9 5.35-2.2 20.95 4.65-21.65-2.9-4.9 2.95-14.6-0.6 0.15-10.4-2.1-1-4.4-17.75-5.6z" fill="#665449"/> <path d="m-48.15 35.9 8.8 1.65 67.2-25.3-76 23.65m149.8-144.8-7 4.8-44.55 69.75 51.55-74.55z" fill="#AA8B79"/> <path d="m-117.65-15.75-12.2 4-0.6 33.2 6.2-1.8v-0.2l6.6-35.2z" fill="#B4927E"/> <path d="m-159.8-32.75 0.15 0.1 41.1-21.75-33.65-18.75-47.8 24 40.2 16.4z" fill="#D4AD97"/> <path d="m-21.7-104.15-1.2 0.1-44.95-15.3-30.9 14.35 14.6 13.05 62.45-12.2z" fill="#CDA792"/> <path d="m-189.8-8.35-2.8-2.8-4.8 9 7.6-6.2z" fill="#5D4B41"/> <path d="m76.25 72-5-2 8.8 27.2-3.8-24.4v-0.8z" fill="#69554A"/> <path d="m198 51.4-2.3-50.75-53 69-0.15 0.95 0.45 5.3 55-24.5z" fill="#F3CFBB"/> <path d="m100.75-2.75 11.3-0.2 9.5 54.5-3.6 42.6 20-19.25 0.9-0.75-11.95-101.5-26.15 24.6z" fill="#F3C5AB"/> <path d="m2.5-136.5v0.2l-0.2 3 10.6 7.2-9.4-9.6-0.8-0.65-0.2-0.15z" fill="#6B574C"/> <path d="m31.35-142.15-2.05-0.55-27-17.2-20.4 10.6 20.6 12.8 0.2 0.15 28.65-5.8z" fill="#F0C4AB"/> </g> </defs> <g transform="matrix(3.3051 0 0 3.3012 810 537.45)"> <use xlink:href="#a"/> </g> </svg>