<?xml version='1.0' encoding='utf-8'?>
<svg xmlns:xlink="http://www.w3.org/1999/xlink" 
xmlns="http://www.w3.org/2000/svg" 
enable-background="new 0 0 45.6 45" 
version="1.1" viewBox="8 8 48 48"> 
<symbol id="a" viewBox="-0.02 -6.4 15.37 6.418"> 
    <g clip-rule="evenodd" fill-rule="evenodd"> 
        <path d="m10.2-0.55c0.9-0.3 1.767-0.65 2.6-1.05s1.684-1.317 2.55-2.75c-0.033-0.4-0.9-0.833-2.6-1.3-1.733-0.5-3.317-0.75-4.75-0.75-1.567 0-3.067 0.1-4.5 0.3-1.434 0.233-2.467 0.467-3.1 0.7s-0.55 1.1 0.25 2.6c0.833 1.5 1.45 2.267 1.85 2.3 0.366 0.034 0.633 0.083 0.8 0.15-0.033-0.033-0.067-0.083-0.1-0.15-0.234-0.3-0.517-0.667-0.85-1.1-0.733-1.1-1.1-1.75-1.1-1.95 0-0.067 0.033-0.117 0.1-0.15 0.266-0.233 1.216-0.4 2.85-0.5 1.233-0.1 2.434-0.15 3.6-0.15 1.6 0 2.717 0.05 3.35 0.15 1.533 0.2 2.3 0.533 2.3 1 0.033 0.467-1.05 1.35-3.25 2.65z" fill="#4F3928"/> 
        <path d="m1.35-3.7c0.434 0.603 1.059 0.978 1.875 1.125 0.817 0.142 1.5 0.234 2.05 0.275s1.533 0.058 2.95 0.05c1.417-2e-3 2.559-0.019 3.425-0.05h0.15c-1.267 0.733-2.267 1.183-3 1.35-0.734 0.2-1.55 0.35-2.45 0.45-0.866 0.133-1.917 0.133-3.15 0 0.034 0.067 0.067 0.117 0.1 0.15 0.9 0.3 2.066 0.417 3.5 0.35 1.4-0.1 2.533-0.283 3.4-0.55 2.2-1.3 3.284-2.183 3.25-2.65 0-0.467-0.767-0.8-2.3-1-0.633-0.1-1.75-0.15-3.35-0.15-1.167 0-2.367 0.05-3.6 0.15-1.634 0.1-2.584 0.267-2.85 0.5z" fill="#6A4E36"/> 
        <path d="m3.2-0.5c1.233 0.133 2.284 0.133 3.15 0 0.9-0.1 1.717-0.25 2.45-0.45 0.733-0.167 1.733-0.617 3-1.35h-0.15c-0.867 0.031-2.008 0.047-3.425 0.05-1.417 8e-3 -2.4-9e-3 -2.95-0.05s-1.233-0.133-2.05-0.275c-0.817-0.147-1.442-0.522-1.875-1.125-0.066 0.033-0.1 0.083-0.1 0.15 0 0.2 0.366 0.85 1.1 1.95 0.333 0.433 0.616 0.8 0.85 1.1z" fill="#9C7250"/> 
    </g> 
</symbol> 
<use transform="matrix(1 0 0 -1 16.5 38.6)" x="0" y="0" width="30.37" height="10.418" xlink:href="#a"/> 
</svg>